<?xml version="1.0" encoding="UTF-8" standalone="no"?><!DOCTYPE svg PUBLIC "-//W3C//DTD SVG 1.1//EN" "http://www.w3.org/Graphics/SVG/1.1/DTD/svg11.dtd"><svg width="100%" height="100%" viewBox="0 0 1002 189" version="1.1" xmlns="http://www.w3.org/2000/svg" xmlns:xlink="http://www.w3.org/1999/xlink" xml:space="preserve" xmlns:serif="http://www.serif.com/" style="fill-rule:evenodd;clip-rule:evenodd;stroke-linejoin:round;stroke-miterlimit:1.41421;"><rect id="Logo2" x="0" y="0" width="1001.85" height="188.039" style="fill:none;"/><clipPath id="_clip1"><rect x="0" y="0" width="1001.85" height="188.039"/></clipPath><g clip-path="url(#_clip1)"><g><path d="M14.504,179.763c0,1.905 -0.683,3.542 -2.051,4.909c-1.319,1.368 -2.955,2.052 -4.909,2.052c-1.905,0 -3.541,-0.684 -4.909,-2.052c-1.368,-1.367 -2.051,-3.004 -2.051,-4.909l0,-70.409c0,-11.576 4.078,-21.443 12.235,-29.6c8.206,-8.157 18.073,-12.235 29.6,-12.235c11.576,0 21.443,4.078 29.6,12.235c8.157,8.157 12.235,18.024 12.235,29.6c0,11.527 -4.078,21.37 -12.235,29.527c-8.157,8.206 -18.024,12.308 -29.6,12.308c-10.648,0 -19.953,-3.565 -27.915,-10.696l0,39.27Zm27.915,-98.323c-7.717,0 -14.287,2.71 -19.709,8.132c-5.47,5.471 -8.206,12.065 -8.206,19.782c0,7.669 2.736,14.238 8.206,19.709c5.422,5.422 11.992,8.133 19.709,8.133c7.717,0 14.287,-2.711 19.709,-8.133c5.47,-5.471 8.206,-12.04 8.206,-19.709c0,-7.717 -2.736,-14.311 -8.206,-19.782c-5.422,-5.422 -11.992,-8.132 -19.709,-8.132Z" style="fill:#303036;fill-rule:nonzero;"/><path d="M169.537,104.592c0,1.905 -0.684,3.541 -2.052,4.909c-1.368,1.367 -3.004,2.051 -4.909,2.051c-1.954,0 -3.614,-0.684 -4.982,-2.051c-1.319,-1.368 -1.978,-3.004 -1.978,-4.909c0,-6.399 -2.271,-11.845 -6.814,-16.339c-4.494,-4.542 -9.94,-6.813 -16.338,-6.813c-6.399,0 -11.845,2.271 -16.339,6.813c-4.542,4.494 -6.814,9.94 -6.814,16.339l0,39.637c0,1.905 -0.659,3.541 -1.978,4.909c-1.367,1.368 -3.028,2.051 -4.982,2.051c-1.905,0 -3.541,-0.683 -4.909,-2.051c-1.367,-1.368 -2.051,-3.004 -2.051,-4.909l0,-39.637c0,-10.257 3.614,-19.001 10.843,-26.23c7.229,-7.229 15.972,-10.843 26.23,-10.843c10.257,0 19,3.614 26.229,10.843c7.229,7.229 10.844,15.973 10.844,26.23Z" style="fill:#303036;fill-rule:nonzero;"/><path d="M217.819,81.44c-7.717,0 -14.287,2.71 -19.708,8.132c-5.471,5.471 -8.206,12.065 -8.206,19.782c0,7.669 2.735,14.238 8.206,19.709c5.421,5.422 11.991,8.133 19.708,8.133c7.718,0 14.287,-2.711 19.709,-8.133c5.471,-5.471 8.206,-12.04 8.206,-19.709c0,-7.717 -2.735,-14.311 -8.206,-19.782c-5.422,-5.422 -11.991,-8.132 -19.709,-8.132Zm-29.599,-1.686c8.205,-8.157 18.072,-12.235 29.599,-12.235c11.576,0 21.443,4.078 29.6,12.235c8.157,8.157 12.236,18.024 12.236,29.6c0,11.527 -4.079,21.37 -12.236,29.527c-8.157,8.206 -18.024,12.308 -29.6,12.308c-11.527,0 -21.394,-4.102 -29.599,-12.308c-8.157,-8.157 -12.236,-18 -12.236,-29.527c0,-11.576 4.079,-21.443 12.236,-29.6Z" style="fill:#303036;fill-rule:nonzero;"/><path d="M310.282,67.519c11.576,0 21.443,4.078 29.6,12.235c8.157,8.157 12.235,18.024 12.235,29.6l0,35.535c0,11.527 -4.078,21.393 -12.235,29.599c-8.157,8.157 -18.024,12.236 -29.6,12.236c-8.206,0 -15.777,-2.247 -22.713,-6.741c-6.936,-4.493 -12.089,-10.526 -15.459,-18.097c-0.782,-1.709 -0.83,-3.468 -0.147,-5.275c0.684,-1.807 1.905,-3.101 3.664,-3.883c1.758,-0.781 3.517,-0.83 5.275,-0.146c1.807,0.683 3.102,1.904 3.883,3.663c2.247,5.031 5.69,9.061 10.331,12.089c4.591,2.979 9.646,4.469 15.166,4.469c7.717,0 14.287,-2.735 19.709,-8.206c5.47,-5.421 8.205,-11.991 8.205,-19.708l0,-4.396c-7.961,7.131 -17.266,10.696 -27.914,10.696c-11.527,0 -21.394,-4.102 -29.6,-12.308c-8.157,-8.157 -12.235,-18 -12.235,-29.527c0,-11.576 4.078,-21.443 12.235,-29.6c8.206,-8.157 18.073,-12.235 29.6,-12.235Zm19.709,22.053c-5.422,-5.422 -11.992,-8.132 -19.709,-8.132c-7.718,0 -14.287,2.71 -19.709,8.132c-5.47,5.471 -8.206,12.065 -8.206,19.782c0,7.669 2.736,14.238 8.206,19.709c5.422,5.422 11.991,8.133 19.709,8.133c7.717,0 14.287,-2.711 19.709,-8.133c5.47,-5.471 8.205,-12.04 8.205,-19.709c0,-7.717 -2.735,-14.311 -8.205,-19.782Z" style="fill:#303036;fill-rule:nonzero;"/><path d="M441.063,104.592c0,1.905 -0.684,3.541 -2.052,4.909c-1.367,1.367 -3.004,2.051 -4.908,2.051c-1.954,0 -3.615,-0.684 -4.983,-2.051c-1.318,-1.368 -1.978,-3.004 -1.978,-4.909c0,-6.399 -2.271,-11.845 -6.814,-16.339c-4.493,-4.542 -9.939,-6.813 -16.338,-6.813c-6.399,0 -11.845,2.271 -16.339,6.813c-4.542,4.494 -6.813,9.94 -6.813,16.339l0,39.637c0,1.905 -0.66,3.541 -1.979,4.909c-1.367,1.368 -3.028,2.051 -4.982,2.051c-1.905,0 -3.541,-0.683 -4.909,-2.051c-1.367,-1.368 -2.051,-3.004 -2.051,-4.909l0,-39.637c0,-10.257 3.615,-19.001 10.843,-26.23c7.229,-7.229 15.973,-10.843 26.23,-10.843c10.257,0 19,3.614 26.229,10.843c7.229,7.229 10.844,15.973 10.844,26.23Z" style="fill:#303036;fill-rule:nonzero;"/><path d="M511.472,130.821c1.514,-1.221 3.224,-1.734 5.129,-1.538c1.905,0.195 3.468,1.025 4.689,2.491c1.221,1.465 1.758,3.175 1.612,5.128c-0.196,1.905 -1.026,3.468 -2.491,4.69c-4.25,3.077 -8.914,5.446 -13.994,7.106c-5.08,1.661 -10.526,2.491 -16.339,2.491c-12.015,0 -22.126,-4.102 -30.332,-12.308c-8.157,-8.157 -12.236,-18 -12.236,-29.527c0,-11.576 4.079,-21.443 12.236,-29.6c8.206,-8.157 18.072,-12.235 29.6,-12.235c11.576,0 21.442,4.078 29.599,12.235c8.157,8.157 12.236,18.024 12.236,29.6c0,1.905 -0.684,3.541 -2.052,4.909c-1.367,1.368 -3.003,2.052 -4.908,2.052l-61.911,0c1.27,4.884 3.712,9.133 7.327,12.748c5.422,5.422 12.235,8.133 20.441,8.133c4.299,0 8.182,-0.538 11.65,-1.612c3.468,-1.075 6.716,-2.662 9.744,-4.763Zm-41.835,-41.249c-3.615,3.615 -6.057,7.864 -7.327,12.749l54.071,0c-1.27,-4.885 -3.712,-9.134 -7.327,-12.749c-5.421,-5.422 -11.991,-8.132 -19.708,-8.132c-7.718,0 -14.287,2.71 -19.709,8.132Z" style="fill:#303036;fill-rule:nonzero;"/><path d="M608.77,79.828c1.368,1.27 2.076,2.833 2.125,4.689c0,1.807 -0.635,3.394 -1.905,4.762c-1.27,1.319 -2.808,2.003 -4.616,2.052c-1.856,0.048 -3.443,-0.562 -4.762,-1.832c-2.882,-2.735 -6.35,-4.836 -10.404,-6.301c-4.249,-1.514 -8.865,-2.296 -13.847,-2.345l0,0.074l-0.074,0c-7.033,0 -12.87,1.245 -17.51,3.736c-3.957,2.149 -5.935,4.787 -5.935,7.913c0.049,3.81 1.832,6.448 5.349,7.913c3.663,1.514 9.768,2.296 18.316,2.344c10.746,0.098 18.341,0.977 22.786,2.638c9.134,3.419 13.701,10.306 13.701,20.661c0,7.815 -3.761,14.043 -11.283,18.683c-6.643,4.152 -14.971,6.277 -24.984,6.374c-6.643,0.049 -12.919,-1.001 -18.829,-3.15c-6.057,-2.198 -11.332,-5.373 -15.826,-9.525c-1.368,-1.221 -2.076,-2.759 -2.125,-4.615c-0.098,-1.857 0.489,-3.444 1.759,-4.763c1.221,-1.367 2.759,-2.1 4.615,-2.198c1.856,-0.049 3.444,0.537 4.763,1.759c3.223,2.979 7.009,5.25 11.356,6.813c4.445,1.612 9.183,2.394 14.214,2.345c7.424,-0.049 13.432,-1.514 18.023,-4.396c3.273,-2.003 4.909,-4.445 4.909,-7.327c0,-4.2 -1.636,-6.911 -4.909,-8.132c-3.028,-1.173 -9.109,-1.783 -18.243,-1.832c-10.306,-0.098 -18.072,-1.197 -23.299,-3.297c-9.085,-3.712 -13.627,-10.477 -13.627,-20.295c0.048,-8.401 4.347,-14.946 12.895,-19.635c6.691,-3.615 14.677,-5.422 23.958,-5.422c6.594,0.049 12.724,1.099 18.39,3.15c5.812,2.101 10.819,5.153 15.019,9.159Z" style="fill:#303036;fill-rule:nonzero;"/><path d="M691.049,79.828c1.367,1.27 2.076,2.833 2.125,4.689c0,1.807 -0.635,3.394 -1.905,4.762c-1.27,1.319 -2.809,2.003 -4.616,2.052c-1.856,0.048 -3.444,-0.562 -4.763,-1.832c-2.881,-2.735 -6.349,-4.836 -10.403,-6.301c-4.25,-1.514 -8.866,-2.296 -13.848,-2.345l0,0.074l-0.073,0c-7.034,0 -12.871,1.245 -17.511,3.736c-3.956,2.149 -5.934,4.787 -5.934,7.913c0.048,3.81 1.831,6.448 5.348,7.913c3.663,1.514 9.769,2.296 18.317,2.344c10.745,0.098 18.341,0.977 22.786,2.638c9.134,3.419 13.701,10.306 13.701,20.661c0,7.815 -3.762,14.043 -11.284,18.683c-6.642,4.152 -14.97,6.277 -24.983,6.374c-6.643,0.049 -12.92,-1.001 -18.83,-3.15c-6.057,-2.198 -11.332,-5.373 -15.826,-9.525c-1.367,-1.221 -2.076,-2.759 -2.124,-4.615c-0.098,-1.857 0.488,-3.444 1.758,-4.763c1.221,-1.367 2.76,-2.1 4.616,-2.198c1.856,-0.049 3.443,0.537 4.762,1.759c3.224,2.979 7.009,5.25 11.357,6.813c4.444,1.612 9.182,2.394 14.213,2.345c7.425,-0.049 13.432,-1.514 18.024,-4.396c3.272,-2.003 4.909,-4.445 4.909,-7.327c0,-4.2 -1.637,-6.911 -4.909,-8.132c-3.029,-1.173 -9.11,-1.783 -18.244,-1.832c-10.306,-0.098 -18.072,-1.197 -23.298,-3.297c-9.085,-3.712 -13.628,-10.477 -13.628,-20.295c0.049,-8.401 4.347,-14.946 12.895,-19.635c6.692,-3.615 14.678,-5.422 23.958,-5.422c6.594,0.049 12.724,1.099 18.39,3.15c5.813,2.101 10.819,5.153 15.02,9.159Z" style="fill:#303036;fill-rule:nonzero;"/><path d="M723.579,144.156c0,1.954 -0.684,3.614 -2.051,4.982c-1.319,1.368 -2.955,2.051 -4.909,2.051c-1.905,0 -3.541,-0.683 -4.909,-2.051c-1.368,-1.368 -2.051,-3.028 -2.051,-4.982l0,-69.677c0,-1.954 0.683,-3.614 2.051,-4.982c1.368,-1.319 3.004,-1.978 4.909,-1.978c1.954,0 3.59,0.659 4.909,1.978c1.367,1.368 2.051,3.028 2.051,4.982l0,69.677Zm-6.887,-97.591c1.905,0 3.541,0.683 4.909,2.051c1.368,1.368 2.051,3.028 2.051,4.982c0,1.954 -0.683,3.615 -2.051,4.982c-1.368,1.368 -3.004,2.052 -4.909,2.052c-1.954,0 -3.602,-0.684 -4.945,-2.052c-1.344,-1.367 -2.015,-3.028 -2.015,-4.982c0,-1.954 0.671,-3.614 2.015,-4.982c1.343,-1.368 2.991,-2.051 4.945,-2.051Z" style="fill:#303036;fill-rule:nonzero;"/><path d="M780.141,81.44c-7.717,0 -14.287,2.71 -19.709,8.132c-5.47,5.471 -8.206,12.065 -8.206,19.782c0,7.669 2.736,14.238 8.206,19.709c5.422,5.422 11.992,8.133 19.709,8.133c7.717,0 14.287,-2.711 19.709,-8.133c5.47,-5.471 8.206,-12.04 8.206,-19.709c0,-7.717 -2.736,-14.311 -8.206,-19.782c-5.422,-5.422 -11.992,-8.132 -19.709,-8.132Zm-29.6,-1.686c8.206,-8.157 18.073,-12.235 29.6,-12.235c11.576,0 21.443,4.078 29.6,12.235c8.157,8.157 12.235,18.024 12.235,29.6c0,11.527 -4.078,21.37 -12.235,29.527c-8.157,8.206 -18.024,12.308 -29.6,12.308c-11.527,0 -21.394,-4.102 -29.6,-12.308c-8.157,-8.157 -12.235,-18 -12.235,-29.527c0,-11.576 4.078,-21.443 12.235,-29.6Z" style="fill:#303036;fill-rule:nonzero;"/><path d="M916.637,144.156c0,1.954 -0.684,3.614 -2.052,4.982c-1.367,1.368 -3.004,2.051 -4.908,2.051c-1.954,0 -3.591,-0.683 -4.909,-2.051c-1.368,-1.368 -2.052,-3.028 -2.052,-4.982l0,-34.802c0,-7.717 -2.735,-14.311 -8.206,-19.782c-5.421,-5.422 -11.991,-8.132 -19.708,-8.132c-7.718,0 -14.287,2.71 -19.709,8.132c-5.471,5.471 -8.206,12.065 -8.206,19.782l0,34.802c0,1.954 -0.684,3.614 -2.051,4.982c-1.319,1.368 -2.956,2.051 -4.909,2.051c-1.905,0 -3.542,-0.683 -4.909,-2.051c-1.368,-1.368 -2.052,-3.028 -2.052,-4.982l0,-34.802c0,-11.576 4.079,-21.443 12.236,-29.6c8.206,-8.157 18.072,-12.235 29.6,-12.235c11.576,0 21.442,4.078 29.599,12.235c8.157,8.157 12.236,18.024 12.236,29.6l0,34.802Z" style="fill:#303036;fill-rule:nonzero;"/><path d="M998.622,79.828c1.368,1.27 2.076,2.833 2.125,4.689c0,1.807 -0.635,3.394 -1.905,4.762c-1.27,1.319 -2.808,2.003 -4.616,2.052c-1.856,0.048 -3.443,-0.562 -4.762,-1.832c-2.882,-2.735 -6.35,-4.836 -10.404,-6.301c-4.249,-1.514 -8.865,-2.296 -13.847,-2.345l0,0.074l-0.074,0c-7.033,0 -12.87,1.245 -17.51,3.736c-3.957,2.149 -5.935,4.787 -5.935,7.913c0.049,3.81 1.832,6.448 5.349,7.913c3.663,1.514 9.768,2.296 18.316,2.344c10.746,0.098 18.341,0.977 22.786,2.638c9.134,3.419 13.701,10.306 13.701,20.661c0,7.815 -3.761,14.043 -11.283,18.683c-6.643,4.152 -14.971,6.277 -24.984,6.374c-6.643,0.049 -12.919,-1.001 -18.83,-3.15c-6.056,-2.198 -11.331,-5.373 -15.825,-9.525c-1.368,-1.221 -2.076,-2.759 -2.125,-4.615c-0.098,-1.857 0.489,-3.444 1.759,-4.763c1.221,-1.367 2.759,-2.1 4.615,-2.198c1.856,-0.049 3.444,0.537 4.763,1.759c3.223,2.979 7.009,5.25 11.356,6.813c4.445,1.612 9.183,2.394 14.214,2.345c7.424,-0.049 13.432,-1.514 18.023,-4.396c3.273,-2.003 4.909,-4.445 4.909,-7.327c0,-4.2 -1.636,-6.911 -4.909,-8.132c-3.028,-1.173 -9.109,-1.783 -18.243,-1.832c-10.306,-0.098 -18.073,-1.197 -23.299,-3.297c-9.085,-3.712 -13.627,-10.477 -13.627,-20.295c0.048,-8.401 4.347,-14.946 12.894,-19.635c6.692,-3.615 14.678,-5.422 23.959,-5.422c6.594,0.049 12.724,1.099 18.39,3.15c5.812,2.101 10.819,5.153 15.019,9.159Z" style="fill:#303036;fill-rule:nonzero;"/></g><g><path d="M858.809,34.427c0,0 88.26,0 126.12,0c4.487,0 8.79,-1.782 11.962,-4.955c3.173,-3.173 4.955,-7.475 4.955,-11.962c0,-0.003 0,-0.007 0,-0.01c0,-4.487 -1.782,-8.79 -4.955,-11.962c-3.172,-3.173 -7.475,-4.955 -11.962,-4.955l-126.12,0l0,33.844Z" style="fill:#a4fec9;"/><path d="M0.584,17.51c0,4.487 1.782,8.789 4.954,11.962c3.173,3.173 7.476,4.955 11.962,4.955c37.86,0 126.121,0 126.121,0l0,-33.844c0,0 -88.261,0 -126.121,0c-4.486,0 -8.789,1.782 -11.962,4.955c-3.172,3.172 -4.954,7.475 -4.954,11.962c0,0.003 0,0.007 0,0.01Z" style="fill:#5433ff;"/><path d="M715.771,34.427l143.038,0l0,-33.844l-143.038,0l0,33.844Z" style="fill:#7febd8;"/><rect x="143.621" y="0.583" width="143.037" height="33.844" style="fill:#455aff;"/><rect x="286.659" y="0.583" width="143.037" height="33.844" style="fill:#28a9ff;"/><rect x="429.696" y="0.583" width="143.037" height="33.844" style="fill:#33c6f7;"/><path d="M572.734,34.427l143.037,0l0,-33.844l-143.037,0l0,33.844Z" style="fill:#59d9e8;"/></g></g></svg>